<mxfile host="app.diagrams.net" modified="2021-02-14T23:35:05.264Z" agent="5.0 (Windows NT 10.0; Win64; x64) AppleWebKit/537.36 (KHTML, like Gecko) Chrome/87.0.4280.141 Safari/537.36 OPR/73.0.3856.396" etag="42VrfVV-lnj-fNwjUW9w" version="14.3.1" type="github">
  <diagram name="DD" id="5f0bae14-7c28-e335-631c-24af17079c00">
    <mxGraphModel dx="1329" dy="731" grid="1" gridSize="10" guides="1" tooltips="1" connect="1" arrows="1" fold="1" page="1" pageScale="1" pageWidth="1100" pageHeight="850" background="#ffffff" math="0" shadow="0">
      <root>
        <mxCell id="0" />
        <mxCell id="1" parent="0" />
        <mxCell id="zCYu2N9zkDKBF8dn4s-w-119" style="edgeStyle=none;rounded=0;orthogonalLoop=1;jettySize=auto;html=1;endArrow=none;endFill=0;" parent="1" source="zCYu2N9zkDKBF8dn4s-w-28" edge="1">
          <mxGeometry relative="1" as="geometry">
            <mxPoint x="2015" y="595" as="targetPoint" />
          </mxGeometry>
        </mxCell>
        <mxCell id="zCYu2N9zkDKBF8dn4s-w-28" value="Cliente Web" style="verticalAlign=top;align=left;spacingTop=8;spacingLeft=2;spacingRight=12;shape=cube;size=10;direction=south;fontStyle=4;html=1;rounded=0;shadow=0;comic=0;labelBackgroundColor=none;strokeWidth=1;fontFamily=Verdana;fontSize=12" parent="1" vertex="1">
          <mxGeometry x="1260" y="425" width="370" height="350" as="geometry" />
        </mxCell>
        <mxCell id="zCYu2N9zkDKBF8dn4s-w-115" style="edgeStyle=none;rounded=0;orthogonalLoop=1;jettySize=auto;html=1;entryX=-0.009;entryY=0.369;entryDx=0;entryDy=0;entryPerimeter=0;dashed=1;endArrow=classic;endFill=1;" parent="1" source="zCYu2N9zkDKBF8dn4s-w-32" target="zCYu2N9zkDKBF8dn4s-w-69" edge="1">
          <mxGeometry relative="1" as="geometry" />
        </mxCell>
        <mxCell id="zCYu2N9zkDKBF8dn4s-w-117" style="edgeStyle=none;rounded=0;orthogonalLoop=1;jettySize=auto;html=1;entryX=-0.004;entryY=0.445;entryDx=0;entryDy=0;entryPerimeter=0;dashed=1;endArrow=classic;endFill=1;" parent="1" source="zCYu2N9zkDKBF8dn4s-w-32" target="zCYu2N9zkDKBF8dn4s-w-72" edge="1">
          <mxGeometry relative="1" as="geometry" />
        </mxCell>
        <mxCell id="zCYu2N9zkDKBF8dn4s-w-32" value="Servidor" style="verticalAlign=top;align=left;spacingTop=8;spacingLeft=2;spacingRight=12;shape=cube;size=10;direction=south;fontStyle=4;html=1;rounded=0;shadow=0;comic=0;labelBackgroundColor=none;strokeWidth=1;fontFamily=Verdana;fontSize=12" parent="1" vertex="1">
          <mxGeometry x="2020" y="425" width="580" height="370" as="geometry" />
        </mxCell>
        <mxCell id="zCYu2N9zkDKBF8dn4s-w-69" value="Servidor LDAP" style="verticalAlign=top;align=left;spacingTop=8;spacingLeft=2;spacingRight=12;shape=cube;size=10;direction=south;fontStyle=4;html=1;rounded=0;shadow=0;comic=0;labelBackgroundColor=none;strokeWidth=1;fontFamily=Verdana;fontSize=12" parent="1" vertex="1">
          <mxGeometry x="1900" y="985" width="320" height="220" as="geometry" />
        </mxCell>
        <mxCell id="zCYu2N9zkDKBF8dn4s-w-70" value="Apache Directory" style="shape=component;align=left;spacingLeft=36;rounded=0;shadow=0;comic=0;labelBackgroundColor=none;strokeWidth=1;fontFamily=Verdana;fontSize=12;html=1;" parent="1" vertex="1">
          <mxGeometry x="1960" y="1065" width="180" height="90" as="geometry" />
        </mxCell>
        <mxCell id="zCYu2N9zkDKBF8dn4s-w-72" value="Servidor de Base de Datos" style="verticalAlign=top;align=left;spacingTop=8;spacingLeft=2;spacingRight=12;shape=cube;size=10;direction=south;fontStyle=4;html=1;rounded=0;shadow=0;comic=0;labelBackgroundColor=none;strokeWidth=1;fontFamily=Verdana;fontSize=12" parent="1" vertex="1">
          <mxGeometry x="2430" y="985" width="320" height="220" as="geometry" />
        </mxCell>
        <mxCell id="zCYu2N9zkDKBF8dn4s-w-74" value="Base de Datos MySQL" style="shape=component;align=left;spacingLeft=36;rounded=0;shadow=0;comic=0;labelBackgroundColor=none;strokeWidth=1;fontFamily=Verdana;fontSize=12;html=1;" parent="1" vertex="1">
          <mxGeometry x="2470" y="1055" width="240" height="80" as="geometry" />
        </mxCell>
        <mxCell id="3-WQXtMGNgMrWhu_swTs-3" style="rounded=0;orthogonalLoop=1;jettySize=auto;html=1;exitX=0;exitY=0;exitDx=135;exitDy=0;exitPerimeter=0;endArrow=none;endFill=0;" edge="1" parent="1" source="zCYu2N9zkDKBF8dn4s-w-75" target="3-WQXtMGNgMrWhu_swTs-1">
          <mxGeometry relative="1" as="geometry" />
        </mxCell>
        <mxCell id="zCYu2N9zkDKBF8dn4s-w-75" value="&amp;lt;&amp;lt;dispositivo&amp;gt;&amp;gt;" style="verticalAlign=top;align=left;spacingTop=8;spacingLeft=2;spacingRight=12;shape=cube;size=10;direction=south;fontStyle=4;html=1;rounded=0;shadow=0;comic=0;labelBackgroundColor=none;strokeWidth=1;fontFamily=Verdana;fontSize=12" parent="1" vertex="1">
          <mxGeometry x="100" y="452.5" width="380" height="280" as="geometry" />
        </mxCell>
        <mxCell id="zCYu2N9zkDKBF8dn4s-w-76" value="" style="shape=component;align=left;spacingLeft=36;rounded=0;shadow=0;comic=0;labelBackgroundColor=none;strokeWidth=1;fontFamily=Verdana;fontSize=12;html=1;" parent="1" vertex="1">
          <mxGeometry x="160" y="532.5" width="250" height="140" as="geometry" />
        </mxCell>
        <mxCell id="zCYu2N9zkDKBF8dn4s-w-77" value="Navegador Web" style="text;html=1;strokeColor=none;fillColor=none;align=center;verticalAlign=middle;whiteSpace=wrap;rounded=0;" parent="1" vertex="1">
          <mxGeometry x="180" y="532.5" width="100" height="20" as="geometry" />
        </mxCell>
        <mxCell id="zCYu2N9zkDKBF8dn4s-w-78" value="Motor Javascript" style="shape=component;align=left;spacingLeft=36;rounded=0;shadow=0;comic=0;labelBackgroundColor=none;strokeWidth=1;fontFamily=Verdana;fontSize=12;html=1;" parent="1" vertex="1">
          <mxGeometry x="210" y="582.5" width="160" height="50" as="geometry" />
        </mxCell>
        <mxCell id="zCYu2N9zkDKBF8dn4s-w-79" value="PC" style="text;html=1;strokeColor=none;fillColor=none;align=center;verticalAlign=middle;whiteSpace=wrap;rounded=0;" parent="1" vertex="1">
          <mxGeometry x="100" y="482.5" width="40" height="20" as="geometry" />
        </mxCell>
        <mxCell id="3-WQXtMGNgMrWhu_swTs-4" style="edgeStyle=none;rounded=0;orthogonalLoop=1;jettySize=auto;html=1;entryX=0.43;entryY=1.009;entryDx=0;entryDy=0;entryPerimeter=0;endArrow=none;endFill=0;" edge="1" parent="1" source="zCYu2N9zkDKBF8dn4s-w-80" target="3-WQXtMGNgMrWhu_swTs-1">
          <mxGeometry relative="1" as="geometry" />
        </mxCell>
        <mxCell id="zCYu2N9zkDKBF8dn4s-w-80" value="&amp;lt;&amp;lt;dispositivo&amp;gt;&amp;gt;" style="verticalAlign=top;align=left;spacingTop=8;spacingLeft=2;spacingRight=12;shape=cube;size=10;direction=south;fontStyle=4;html=1;rounded=0;shadow=0;comic=0;labelBackgroundColor=none;strokeWidth=1;fontFamily=Verdana;fontSize=12" parent="1" vertex="1">
          <mxGeometry x="110" y="950" width="380" height="205" as="geometry" />
        </mxCell>
        <mxCell id="zCYu2N9zkDKBF8dn4s-w-84" value="Smartphone" style="text;html=1;strokeColor=none;fillColor=none;align=center;verticalAlign=middle;whiteSpace=wrap;rounded=0;" parent="1" vertex="1">
          <mxGeometry x="140" y="985" width="40" height="20" as="geometry" />
        </mxCell>
        <mxCell id="3-WQXtMGNgMrWhu_swTs-7" style="edgeStyle=none;rounded=0;orthogonalLoop=1;jettySize=auto;html=1;exitX=0;exitY=0;exitDx=160;exitDy=520;exitPerimeter=0;endArrow=none;endFill=0;entryX=0.469;entryY=-0.011;entryDx=0;entryDy=0;entryPerimeter=0;" edge="1" parent="1" source="zCYu2N9zkDKBF8dn4s-w-86" target="3-WQXtMGNgMrWhu_swTs-1">
          <mxGeometry relative="1" as="geometry" />
        </mxCell>
        <mxCell id="zCYu2N9zkDKBF8dn4s-w-86" value="Cliente Movil" style="verticalAlign=top;align=left;spacingTop=8;spacingLeft=2;spacingRight=12;shape=cube;size=10;direction=south;fontStyle=4;html=1;rounded=0;shadow=0;comic=0;labelBackgroundColor=none;strokeWidth=1;fontFamily=Verdana;fontSize=12" parent="1" vertex="1">
          <mxGeometry x="1260" y="995" width="520" height="310" as="geometry" />
        </mxCell>
        <mxCell id="zCYu2N9zkDKBF8dn4s-w-90" value="HTTPS" style="text;html=1;strokeColor=none;fillColor=none;align=center;verticalAlign=middle;whiteSpace=wrap;rounded=0;" parent="1" vertex="1">
          <mxGeometry x="570" y="665" width="40" height="20" as="geometry" />
        </mxCell>
        <mxCell id="zCYu2N9zkDKBF8dn4s-w-95" value="Servidor Web&lt;br&gt;&lt;b&gt;Apache&lt;/b&gt;" style="verticalAlign=top;align=left;spacingTop=8;spacingLeft=2;spacingRight=12;shape=cube;size=10;direction=south;fontStyle=4;html=1;rounded=0;shadow=0;comic=0;labelBackgroundColor=none;strokeWidth=1;fontFamily=Verdana;fontSize=12" parent="1" vertex="1">
          <mxGeometry x="1300" y="490" width="250" height="235" as="geometry" />
        </mxCell>
        <mxCell id="zCYu2N9zkDKBF8dn4s-w-100" style="edgeStyle=none;rounded=0;orthogonalLoop=1;jettySize=auto;html=1;exitX=0.5;exitY=1;exitDx=0;exitDy=0;endArrow=classic;endFill=1;entryX=0.5;entryY=0;entryDx=0;entryDy=0;" parent="1" source="zCYu2N9zkDKBF8dn4s-w-96" target="zCYu2N9zkDKBF8dn4s-w-102" edge="1">
          <mxGeometry relative="1" as="geometry">
            <mxPoint x="1395" y="625" as="targetPoint" />
          </mxGeometry>
        </mxCell>
        <mxCell id="zCYu2N9zkDKBF8dn4s-w-96" value="«artifact»&lt;br&gt;&lt;b&gt;.htaccess&lt;/b&gt;" style="html=1;rounded=0;shadow=0;comic=0;labelBackgroundColor=none;strokeWidth=1;fontFamily=Verdana;fontSize=12;align=center;" parent="1" vertex="1">
          <mxGeometry x="1340" y="550" width="140" height="50" as="geometry" />
        </mxCell>
        <mxCell id="zCYu2N9zkDKBF8dn4s-w-102" value="Presentación&lt;br&gt;Web" style="shape=component;align=left;spacingLeft=36;rounded=0;shadow=0;comic=0;labelBackgroundColor=none;strokeWidth=1;fontFamily=Verdana;fontSize=12;html=1;" parent="1" vertex="1">
          <mxGeometry x="1330" y="625" width="160" height="60" as="geometry" />
        </mxCell>
        <mxCell id="zCYu2N9zkDKBF8dn4s-w-107" style="edgeStyle=none;rounded=0;orthogonalLoop=1;jettySize=auto;html=1;entryX=0.5;entryY=0;entryDx=0;entryDy=0;endArrow=classic;endFill=1;" parent="1" source="zCYu2N9zkDKBF8dn4s-w-104" target="zCYu2N9zkDKBF8dn4s-w-106" edge="1">
          <mxGeometry relative="1" as="geometry" />
        </mxCell>
        <mxCell id="zCYu2N9zkDKBF8dn4s-w-109" style="edgeStyle=none;rounded=0;orthogonalLoop=1;jettySize=auto;html=1;entryX=0.5;entryY=0;entryDx=0;entryDy=0;endArrow=classic;endFill=1;" parent="1" source="zCYu2N9zkDKBF8dn4s-w-104" target="zCYu2N9zkDKBF8dn4s-w-108" edge="1">
          <mxGeometry relative="1" as="geometry" />
        </mxCell>
        <mxCell id="zCYu2N9zkDKBF8dn4s-w-104" value="«artifact»&lt;br&gt;&lt;b&gt;manifest.xml&lt;/b&gt;" style="html=1;rounded=0;shadow=0;comic=0;labelBackgroundColor=none;strokeWidth=1;fontFamily=Verdana;fontSize=12;align=center;" parent="1" vertex="1">
          <mxGeometry x="1400" y="1065" width="210" height="50" as="geometry" />
        </mxCell>
        <mxCell id="zCYu2N9zkDKBF8dn4s-w-106" value="Clases compiladas" style="shape=component;align=left;spacingLeft=36;rounded=0;shadow=0;comic=0;labelBackgroundColor=none;strokeWidth=1;fontFamily=Verdana;fontSize=12;html=1;" parent="1" vertex="1">
          <mxGeometry x="1340" y="1160" width="165" height="60" as="geometry" />
        </mxCell>
        <mxCell id="zCYu2N9zkDKBF8dn4s-w-108" value="Recursos compilados" style="shape=component;align=left;spacingLeft=36;rounded=0;shadow=0;comic=0;labelBackgroundColor=none;strokeWidth=1;fontFamily=Verdana;fontSize=12;html=1;" parent="1" vertex="1">
          <mxGeometry x="1525" y="1160" width="170" height="60" as="geometry" />
        </mxCell>
        <mxCell id="zCYu2N9zkDKBF8dn4s-w-110" value="Aplicación móvil" style="shape=component;align=left;spacingLeft=36;rounded=0;shadow=0;comic=0;labelBackgroundColor=none;strokeWidth=1;fontFamily=Verdana;fontSize=12;html=1;" parent="1" vertex="1">
          <mxGeometry x="165" y="1025" width="250" height="70" as="geometry" />
        </mxCell>
        <mxCell id="zCYu2N9zkDKBF8dn4s-w-116" value="TCP/IP" style="text;html=1;strokeColor=none;fillColor=none;align=center;verticalAlign=middle;whiteSpace=wrap;rounded=0;" parent="1" vertex="1">
          <mxGeometry x="2080" y="865" width="40" height="20" as="geometry" />
        </mxCell>
        <mxCell id="zCYu2N9zkDKBF8dn4s-w-118" value="TCP/IP" style="text;html=1;strokeColor=none;fillColor=none;align=center;verticalAlign=middle;whiteSpace=wrap;rounded=0;" parent="1" vertex="1">
          <mxGeometry x="2580" y="865" width="40" height="20" as="geometry" />
        </mxCell>
        <mxCell id="zCYu2N9zkDKBF8dn4s-w-120" value="HTTPS" style="text;html=1;strokeColor=none;fillColor=none;align=center;verticalAlign=middle;whiteSpace=wrap;rounded=0;" parent="1" vertex="1">
          <mxGeometry x="1800" y="562.5" width="40" height="20" as="geometry" />
        </mxCell>
        <mxCell id="3-WQXtMGNgMrWhu_swTs-6" style="edgeStyle=none;rounded=0;orthogonalLoop=1;jettySize=auto;html=1;endArrow=none;endFill=0;" edge="1" parent="1" source="3-WQXtMGNgMrWhu_swTs-1" target="zCYu2N9zkDKBF8dn4s-w-28">
          <mxGeometry relative="1" as="geometry" />
        </mxCell>
        <mxCell id="3-WQXtMGNgMrWhu_swTs-1" value="FIREWALL" style="verticalAlign=top;align=left;spacingTop=8;spacingLeft=2;spacingRight=12;shape=cube;size=10;direction=south;fontStyle=4;html=1;rounded=0;shadow=0;comic=0;labelBackgroundColor=none;strokeWidth=1;fontFamily=Verdana;fontSize=12" vertex="1" parent="1">
          <mxGeometry x="740" y="462.5" width="250" height="707.5" as="geometry" />
        </mxCell>
        <mxCell id="3-WQXtMGNgMrWhu_swTs-5" value="HTTPS" style="text;html=1;strokeColor=none;fillColor=none;align=center;verticalAlign=middle;whiteSpace=wrap;rounded=0;" vertex="1" parent="1">
          <mxGeometry x="560" y="830" width="40" height="20" as="geometry" />
        </mxCell>
        <mxCell id="3-WQXtMGNgMrWhu_swTs-8" value="HTTPS" style="text;html=1;strokeColor=none;fillColor=none;align=center;verticalAlign=middle;whiteSpace=wrap;rounded=0;" vertex="1" parent="1">
          <mxGeometry x="1090" y="865" width="40" height="20" as="geometry" />
        </mxCell>
        <mxCell id="3-WQXtMGNgMrWhu_swTs-9" value="HTTPS" style="text;html=1;strokeColor=none;fillColor=none;align=center;verticalAlign=middle;whiteSpace=wrap;rounded=0;" vertex="1" parent="1">
          <mxGeometry x="1090" y="652.5" width="40" height="20" as="geometry" />
        </mxCell>
        <mxCell id="3-WQXtMGNgMrWhu_swTs-10" value="Application Server" style="verticalAlign=top;align=left;spacingTop=8;spacingLeft=2;spacingRight=12;shape=cube;size=10;direction=south;fontStyle=4;html=1;rounded=0;shadow=0;comic=0;labelBackgroundColor=none;strokeWidth=1;fontFamily=Verdana;fontSize=12" vertex="1" parent="1">
          <mxGeometry x="2085" y="482.5" width="450" height="277.5" as="geometry" />
        </mxCell>
        <mxCell id="3-WQXtMGNgMrWhu_swTs-11" style="edgeStyle=none;rounded=0;orthogonalLoop=1;jettySize=auto;html=1;exitX=0;exitY=0.5;exitDx=0;exitDy=0;entryX=1;entryY=0.25;entryDx=0;entryDy=0;endArrow=classic;endFill=1;dashed=1;" edge="1" parent="1" source="3-WQXtMGNgMrWhu_swTs-12" target="3-WQXtMGNgMrWhu_swTs-13">
          <mxGeometry relative="1" as="geometry" />
        </mxCell>
        <mxCell id="3-WQXtMGNgMrWhu_swTs-12" value="«artifact»&lt;br&gt;&lt;b&gt;persistence.xml&lt;/b&gt;" style="html=1;rounded=0;shadow=0;comic=0;labelBackgroundColor=none;strokeWidth=1;fontFamily=Verdana;fontSize=12;align=center;" vertex="1" parent="1">
          <mxGeometry x="2365" y="550" width="150" height="65" as="geometry" />
        </mxCell>
        <mxCell id="3-WQXtMGNgMrWhu_swTs-13" value="Servicios" style="shape=component;align=left;spacingLeft=36;rounded=0;shadow=0;comic=0;labelBackgroundColor=none;strokeWidth=1;fontFamily=Verdana;fontSize=12;html=1;" vertex="1" parent="1">
          <mxGeometry x="2110" y="590" width="170" height="75" as="geometry" />
        </mxCell>
        <mxCell id="3-WQXtMGNgMrWhu_swTs-14" style="edgeStyle=none;rounded=0;orthogonalLoop=1;jettySize=auto;html=1;exitX=0;exitY=0.5;exitDx=0;exitDy=0;entryX=1;entryY=0.5;entryDx=0;entryDy=0;endArrow=classic;endFill=1;dashed=1;" edge="1" parent="1" source="3-WQXtMGNgMrWhu_swTs-15" target="3-WQXtMGNgMrWhu_swTs-13">
          <mxGeometry relative="1" as="geometry" />
        </mxCell>
        <mxCell id="3-WQXtMGNgMrWhu_swTs-15" value="«artifact»&lt;br&gt;&lt;b&gt;servicio.war&lt;/b&gt;" style="html=1;rounded=0;shadow=0;comic=0;labelBackgroundColor=none;strokeWidth=1;fontFamily=Verdana;fontSize=12;align=center;" vertex="1" parent="1">
          <mxGeometry x="2365" y="667.5" width="150" height="50" as="geometry" />
        </mxCell>
      </root>
    </mxGraphModel>
  </diagram>
</mxfile>
